<svg width="24" height="24" viewBox="0 0 24 24" fill="none" xmlns="http://www.w3.org/2000/svg">
<path d="M19.3359 18.0211C19.2586 18 19.1648 18.0117 19.057 18.0516C17.6133 18.7125 16.2094 19.1836 14.8453 19.4625C11.8992 20.0625 9.02812 19.7484 6.23437 18.5227C5.45859 18.1805 4.38047 17.6039 3 16.7883C2.96443 16.7602 2.92103 16.7438 2.87578 16.7414C2.8289 16.7391 2.78906 16.7438 2.75156 16.7625C2.71406 16.7813 2.68593 16.8047 2.66484 16.8352C2.64375 16.8656 2.63906 16.9078 2.65547 16.9617C2.66953 17.0133 2.70468 17.0719 2.76328 17.1352C3.00703 17.4211 3.30937 17.7258 3.66796 18.0492C4.02656 18.3727 4.50234 18.7383 5.09531 19.1461C5.68828 19.5539 6.30937 19.9172 6.9539 20.2336C7.60078 20.55 8.35078 20.8172 9.20625 21.0328C10.0617 21.2484 10.9172 21.3563 11.7703 21.3563C12.6187 21.3563 13.4437 21.2695 14.243 21.1008C15.0445 20.9297 15.7195 20.7281 16.2703 20.4938C16.8187 20.2617 17.325 20.0016 17.7891 19.7203C18.2531 19.4391 18.5953 19.2 18.818 19.0102C19.0406 18.818 19.2 18.668 19.2914 18.5555C19.3992 18.4219 19.4531 18.307 19.4531 18.2063C19.4555 18.1008 19.4133 18.0399 19.3359 18.0211ZM12.3609 8.1586C12.0047 8.18907 11.5758 8.25469 11.0719 8.35313C10.568 8.44922 10.1016 8.5711 9.67031 8.71407C9.23906 8.85704 8.79843 9.05626 8.35078 9.30938C7.90078 9.56251 7.51875 9.85313 7.20234 10.1766C6.88593 10.5 6.62812 10.9055 6.42656 11.3953C6.225 11.8828 6.12421 12.4195 6.12421 13.0055C6.12421 13.6406 6.23437 14.2055 6.45937 14.7047C6.68203 15.2039 6.97968 15.5953 7.35468 15.8859C7.72734 16.1766 8.15156 16.4039 8.62031 16.5703C9.08906 16.7367 9.58593 16.8117 10.1016 16.7906C10.6172 16.7695 11.1211 16.6899 11.6109 16.5492C12.0984 16.4109 12.5578 16.1883 12.9844 15.8859C13.4109 15.5836 13.7602 15.225 14.0344 14.8149C14.1352 14.9695 14.2242 15.0844 14.3039 15.1594L14.5078 15.368C14.6437 15.5063 14.8523 15.7102 15.1336 15.9797C15.4125 16.2492 15.6984 16.5117 15.9844 16.7695L18.4312 14.4281L18.2906 14.3133C18.1898 14.2359 18.0703 14.1258 17.9344 13.9781C17.7984 13.8328 17.6625 13.6711 17.5312 13.4977C17.3977 13.3242 17.2828 13.1203 17.1867 12.8906C17.0906 12.6609 17.0414 12.4383 17.0414 12.2227V6.06329C17.0414 5.82657 16.9969 5.5711 16.9078 5.29454C16.8164 5.02032 16.657 4.72032 16.4227 4.39688C16.1883 4.07344 15.8977 3.78282 15.5508 3.52969C15.2016 3.27657 14.7375 3.06094 14.1539 2.88751C13.5727 2.71407 12.9211 2.62735 12.2039 2.62735C11.4703 2.62735 10.7883 2.71407 10.1508 2.88282C9.51562 3.05391 8.97187 3.28126 8.51718 3.56719C8.06484 3.85313 7.67578 4.1836 7.35234 4.56094C7.0289 4.93829 6.7875 5.33204 6.63047 5.74219C6.47343 6.15235 6.39375 6.56719 6.39375 6.98673L9.5625 7.26563C9.6914 6.88126 9.86484 6.54844 10.0781 6.26251C10.2937 5.97657 10.4977 5.77032 10.6828 5.64141C10.8703 5.51251 11.0719 5.40938 11.2852 5.33204C11.5008 5.25469 11.6461 5.21485 11.7211 5.20548C11.7961 5.19844 11.8547 5.1961 11.8992 5.1961C12.525 5.1961 12.9586 5.38126 13.2023 5.74923C13.3547 5.97188 13.4297 6.30938 13.4297 6.76407V8.09063C13.0734 8.10469 12.7172 8.12813 12.3609 8.1586ZM13.432 11.7188C13.432 12.1078 13.3805 12.4617 13.2797 12.7734C13.0641 13.4555 12.6539 13.8844 12.0516 14.0578C11.5266 14.2125 11.0273 14.1352 10.5539 13.8281C10.05 13.5 9.79922 13.0359 9.79922 12.4383C9.79922 11.9719 9.9164 11.5734 10.1508 11.2406C10.3852 10.9102 10.6969 10.6617 11.0883 10.4977C11.4797 10.3336 11.8617 10.2164 12.2367 10.1484C12.6094 10.0781 13.0102 10.0359 13.432 10.0219V11.7188ZM21.2883 16.8492C21.1875 16.7227 20.9156 16.6406 20.4703 16.5984C20.025 16.5563 19.6383 16.5586 19.3055 16.6078C18.9469 16.65 18.5766 16.7531 18.1969 16.9219C17.8148 17.0883 17.6484 17.2289 17.6906 17.3391L17.707 17.3695L17.7281 17.3859L17.7609 17.3906H17.8687C17.8875 17.3906 17.9109 17.3883 17.9437 17.3859C17.9766 17.3836 18.007 17.3789 18.0352 17.3766C18.0633 17.3742 18.1031 17.3695 18.1547 17.3672C18.2039 17.3649 18.2508 17.3578 18.2953 17.3508C18.3023 17.3508 18.382 17.3438 18.5367 17.3297C18.6914 17.3156 18.8039 17.3063 18.8719 17.2992C18.9398 17.2922 19.0547 17.2852 19.2117 17.2781C19.3687 17.2711 19.4953 17.2711 19.5891 17.2781C19.6828 17.2852 19.7883 17.2945 19.9078 17.3039C20.0273 17.3133 20.1234 17.3344 20.1984 17.3672C20.2734 17.3977 20.3297 17.4375 20.3648 17.4867C20.4867 17.6414 20.4633 17.9836 20.2945 18.5156C20.1258 19.0477 19.9664 19.4719 19.8164 19.7859C19.7508 19.9195 19.7508 20.0016 19.8164 20.0367C19.882 20.0719 19.9734 20.0391 20.0953 19.943C20.4609 19.657 20.7656 19.2258 21.0117 18.6469C21.1547 18.3047 21.2578 17.9484 21.3187 17.5758C21.375 17.2031 21.3656 16.9617 21.2883 16.8492Z" fill="#131313"/>
</svg>
