<svg width="135" height="97" viewBox="0 0 135 97" fill="none" xmlns="http://www.w3.org/2000/svg">
<g opacity="0.2">
<path d="M0 18.4194C0 -2.24678 16.7532 -19 37.4194 -19C58.0855 -19 74.8387 -2.24679 74.8387 18.4194V55.8387H37.4194C16.7532 55.8387 0 39.0855 0 18.4194Z" fill="#A7FED9"/>
<path d="M134.71 30.8925C134.71 17.115 123.541 5.94623 109.763 5.94623C95.986 5.94623 84.8172 17.115 84.8172 30.8925V55.8387H109.763C123.541 55.8387 134.71 44.6699 134.71 30.8925Z" fill="#EBB3FF"/>
<path d="M46.1506 82.6559C46.1506 90.5779 52.5726 97 60.4947 97C68.4167 97 74.8388 90.5779 74.8388 82.6559V68.3118H60.4947C52.5726 68.3118 46.1506 74.7339 46.1506 82.6559Z" fill="white"/>
</g>
</svg>
