<svg width="35" height="28" viewBox="0 0 35 28" fill="none" xmlns="http://www.w3.org/2000/svg">
<path d="M34.9329 4.14351L34.9437 23.5016C34.9437 25.7854 33.0795 27.656 30.8142 27.656L4.17287 27.6778C1.88592 27.6778 0.0216772 25.8072 0.0216772 23.5342L0 4.17613C0 1.88143 1.86424 0.0217507 4.14035 0.0217507L30.7925 0C33.0686 0 34.9329 1.84881 34.9329 4.14351Z" fill="url(#paint0_linear_136_1060)"/>
<path d="M13.4724 23.9801C13.3207 23.9801 13.1798 23.904 13.1147 23.7626C13.0172 23.5668 13.093 23.3167 13.2881 23.2188C13.8734 22.9143 14.6646 22.3488 15.1307 21.3809C15.716 20.1411 15.5643 18.7926 15.315 18.6729C15.2499 18.6403 15.0115 18.7708 14.8597 18.8469C14.4804 19.0427 13.9493 19.3146 13.3423 19.0971C12.7462 18.8904 12.4536 18.3575 12.3127 18.0965C11.3914 16.4109 11.1096 12.039 12.0742 9.8639C12.3994 9.14613 12.8329 8.71111 13.3749 8.58061C13.9276 8.4501 14.3828 8.67849 14.7405 8.87424C15.0332 9.0265 15.1849 9.09175 15.2824 9.03737C15.6618 8.80899 15.651 7.41695 15.1199 6.31854C14.6538 5.33976 13.8626 4.77424 13.2773 4.4806C13.0822 4.38273 12.9955 4.13259 13.1039 3.93684C13.2014 3.74108 13.4507 3.65408 13.6458 3.76283C14.3395 4.12172 15.2933 4.79599 15.8461 5.9814C16.3988 7.14506 16.659 9.157 15.6943 9.74427C15.2066 10.0379 14.7405 9.79865 14.372 9.61377C14.0902 9.47239 13.8192 9.33101 13.5591 9.39626C13.2014 9.48326 12.963 9.88565 12.8112 10.2119C11.9658 12.1151 12.2151 16.2477 13.0172 17.7268C13.1581 17.9769 13.3207 18.2488 13.6025 18.3467C13.8734 18.4445 14.1336 18.3249 14.4912 18.14C14.8489 17.9552 15.2391 17.7594 15.6618 17.9552C16.5722 18.401 16.5072 20.3477 15.8569 21.7398C15.2933 22.9252 14.3503 23.5995 13.6567 23.9583C13.5916 23.9692 13.5266 23.9801 13.4724 23.9801Z" fill="#666666"/>
<path d="M12.2477 10.5926H4.97494C4.74733 10.5926 4.57391 10.4077 4.57391 10.1902C4.57391 9.97266 4.74733 9.78778 4.9641 9.78778H12.2368C12.4644 9.78778 12.6378 9.97266 12.6378 10.1902C12.6487 10.4077 12.4753 10.5926 12.2477 10.5926Z" fill="#666666"/>
<path d="M12.2477 17.9008H4.97494C4.74733 17.9008 4.57391 17.7159 4.57391 17.4984C4.57391 17.27 4.75817 17.096 4.97494 17.096H12.2477C12.4753 17.096 12.6487 17.2809 12.6487 17.4984C12.6595 17.7159 12.4753 17.9008 12.2477 17.9008Z" fill="#666666"/>
<path d="M21.9591 23.9692C21.894 23.9692 21.829 23.9584 21.7748 23.9257C21.0811 23.5668 20.1273 22.8926 19.5746 21.7072C18.9134 20.3151 18.8592 18.3684 19.7588 17.9225C20.1815 17.7159 20.5826 17.9225 20.9294 18.0965C21.2979 18.2814 21.558 18.4011 21.8182 18.3032C22.1216 18.1944 22.2951 17.879 22.4034 17.6833C23.2055 16.2042 23.4439 12.0607 22.5985 10.1684C22.4468 9.84216 22.2083 9.4289 21.8507 9.35277C21.6339 9.2984 21.493 9.08089 21.5472 8.86338C21.6014 8.64587 21.8182 8.51537 22.0349 8.55887C22.5769 8.68938 23.0104 9.11351 23.3356 9.83129C24.311 12.0064 24.0292 16.3891 23.1079 18.0639C22.967 18.3249 22.6744 18.8578 22.0783 19.0645C21.4713 19.282 20.9402 19.0101 20.5609 18.8143C20.4091 18.7382 20.1707 18.6186 20.1057 18.6403C19.8672 18.7599 19.7046 20.1085 20.3007 21.3483C20.7668 22.3271 21.558 22.8926 22.1433 23.1862C22.3384 23.2841 22.4251 23.5342 22.3167 23.73C22.2517 23.8931 22.1108 23.9692 21.9591 23.9692Z" fill="#666666"/>
<path d="M20.3332 8.96127C20.1598 8.96127 20.0081 8.85251 19.9539 8.68938C19.0868 6.0793 21.1136 4.06736 21.7639 3.7411C21.959 3.63235 22.2083 3.71935 22.3059 3.91511C22.4034 4.11086 22.3275 4.361 22.1324 4.45887C21.8398 4.61113 19.9756 6.20981 20.7126 8.42838C20.7885 8.64588 20.6692 8.87427 20.4525 8.93952C20.4199 8.96127 20.3766 8.96127 20.3332 8.96127Z" fill="#666666"/>
<path d="M30.4457 10.5817H23.173C22.9454 10.5817 22.772 10.3968 22.772 10.1793C22.772 9.9618 22.9562 9.77692 23.173 9.77692H30.4457C30.6733 9.77692 30.8467 9.9618 30.8467 10.1793C30.8467 10.3968 30.6625 10.5817 30.4457 10.5817Z" fill="#666666"/>
<path d="M30.4457 17.8791H23.173C22.9454 17.8791 22.772 17.6942 22.772 17.4767C22.772 17.2483 22.9562 17.0743 23.173 17.0743H30.4457C30.6733 17.0743 30.8467 17.2592 30.8467 17.4767C30.8467 17.705 30.6733 17.8791 30.4457 17.8791Z" fill="#666666"/>
<defs>
<linearGradient id="paint0_linear_136_1060" x1="17.4718" y1="0" x2="17.4718" y2="27.6778" gradientUnits="userSpaceOnUse">
<stop stop-color="#BDBDBD"/>
<stop offset="0.526042" stop-color="white"/>
<stop offset="1" stop-color="#BDBDBD"/>
</linearGradient>
</defs>
</svg>
