<svg width="16" height="16" viewBox="0 0 16 16" fill="none" xmlns="http://www.w3.org/2000/svg">
<path d="M7.59866 14.006H5.91599C5.87398 14.0082 5.83204 14.0003 5.79374 13.9829C5.75544 13.9655 5.72191 13.9391 5.69599 13.906C5.66957 13.8721 5.65057 13.8331 5.64023 13.7914C5.62989 13.7497 5.62845 13.7063 5.63599 13.664C5.66266 13.5033 5.69599 13.2913 5.73733 13.022L5.81333 12.5373C5.88894 12.0508 5.96628 11.5646 6.04533 11.0786V11.0653L6.17066 10.2893L6.23733 9.87664V9.87331C6.28533 9.57664 6.32333 9.34131 6.35066 9.16598C6.35218 9.13036 6.361 9.09543 6.37659 9.06337C6.39217 9.03131 6.41418 9.00279 6.44126 8.97959C6.46833 8.9564 6.49988 8.93902 6.53396 8.92853C6.56803 8.91805 6.6039 8.91468 6.63933 8.91864H7.65266C8.1388 8.92403 8.62408 8.87664 9.09999 8.77731C9.81657 8.63431 10.4813 8.30058 11.024 7.81131C11.4995 7.35447 11.8565 6.78857 12.064 6.16264C12.1653 5.87198 12.244 5.57331 12.2987 5.27064C12.3033 5.24264 12.3087 5.22664 12.3153 5.22131C12.3173 5.21873 12.3198 5.21666 12.3227 5.21527C12.3256 5.21388 12.3288 5.2132 12.332 5.21331H12.3387C12.3533 5.21947 12.3672 5.2273 12.38 5.23664C12.73 5.50131 12.964 5.89131 13.0333 6.32464C13.112 6.77798 13.1033 7.24198 13.0067 7.69198C12.8804 8.56256 12.4401 9.3569 11.7687 9.92531C11.027 10.454 10.1283 10.7162 9.21866 10.6693H8.92599C8.81705 10.6684 8.71162 10.7078 8.62999 10.78C8.54537 10.8534 8.48902 10.9541 8.47066 11.0646L8.44399 11.194L8.07466 13.5126L8.06133 13.6133C8.0421 13.7251 7.98316 13.8262 7.89533 13.898C7.81288 13.9689 7.7074 14.0073 7.59866 14.006ZM5.21333 12.6726H3.23666C3.19008 12.6736 3.14385 12.6643 3.10132 12.6452C3.05878 12.6262 3.02099 12.598 2.99066 12.5626C2.95907 12.5279 2.93575 12.4865 2.92247 12.4414C2.9092 12.3964 2.9063 12.349 2.91399 12.3026L4.46799 2.44264C4.48754 2.31614 4.55334 2.2014 4.65266 2.12064C4.74859 2.03792 4.87133 1.9929 4.99799 1.99398H9.00733C9.22733 2.00264 9.44599 2.03198 9.66066 2.08131C9.91533 2.12998 10.166 2.20131 10.4087 2.29464C10.8502 2.45077 11.2331 2.73891 11.5053 3.11998C11.7635 3.50892 11.8958 3.96793 11.884 4.43464C11.8729 4.97584 11.7692 5.51114 11.5773 6.01731C11.4262 6.50227 11.1643 6.94541 10.8123 7.31163C10.4603 7.67785 10.0279 7.95712 9.54933 8.12731C9.00482 8.31171 8.4342 8.40737 7.85933 8.41064C7.85266 8.41464 7.56599 8.41531 7.25933 8.41531L6.65933 8.41064C6.46923 8.39124 6.27919 8.44799 6.13086 8.56846C5.98253 8.68892 5.888 8.86327 5.86799 9.05331C5.85933 9.08931 5.65666 10.3513 5.29799 12.606C5.298 12.6165 5.29567 12.627 5.29115 12.6365C5.28664 12.6461 5.28007 12.6545 5.2719 12.6612C5.26374 12.6679 5.25419 12.6727 5.24394 12.6752C5.2337 12.6778 5.22301 12.678 5.21266 12.676L5.21333 12.6726Z" fill="black"/>
</svg>
