<svg width="24" height="24" viewBox="0 0 24 24" fill="none" xmlns="http://www.w3.org/2000/svg">
<path d="M2.74701 15C2.92825 15 3.10335 15.0656 3.23994 15.1848C3.37653 15.3039 3.46536 15.4684 3.49001 15.648L3.49701 15.75V19.252L3.50301 19.38C3.53233 19.666 3.65933 19.9331 3.86261 20.1364C4.06589 20.3397 4.33303 20.4667 4.61901 20.496L4.74701 20.502H8.24701L8.34901 20.509C8.52852 20.5337 8.69302 20.6226 8.8121 20.7591C8.93118 20.8957 8.99678 21.0708 8.99678 21.252C8.99678 21.4332 8.93118 21.6083 8.8121 21.7449C8.69302 21.8814 8.52852 21.9703 8.34901 21.995L8.24701 22.002H4.74701L4.57901 21.997C3.91008 21.9562 3.27907 21.6725 2.80454 21.1993C2.33002 20.726 2.04463 20.0958 2.00201 19.427L1.99701 19.252V15.75L2.00401 15.648C2.02866 15.4684 2.11749 15.3039 2.25408 15.1848C2.39067 15.0656 2.56577 15 2.74701 15ZM21.247 15C21.4282 15 21.6034 15.0656 21.7399 15.1848C21.8765 15.3039 21.9654 15.4684 21.99 15.648L21.997 15.75V19.252C21.997 19.9524 21.7298 20.6265 21.2498 21.1366C20.7697 21.6467 20.1132 21.9545 19.414 21.997L19.247 22.002H15.747C15.557 22.0019 15.3741 21.9298 15.2352 21.8C15.0964 21.6703 15.0119 21.4927 14.999 21.3031C14.986 21.1135 15.0455 20.9261 15.1654 20.7787C15.2854 20.6313 15.4568 20.5349 15.645 20.509L15.747 20.502H19.247C19.5563 20.5019 19.8546 20.3871 20.0841 20.1799C20.3137 19.9727 20.4583 19.6877 20.49 19.38L20.497 19.252V15.75C20.497 15.5511 20.576 15.3603 20.7167 15.2197C20.8573 15.079 21.0481 15 21.247 15ZM18 11V15C18.0001 15.7652 17.7077 16.5015 17.1827 17.0583C16.6578 17.615 15.9399 17.9501 15.176 17.995L15 18H9.00001C8.2348 18 7.49849 17.7077 6.94175 17.1827C6.385 16.6578 6.0499 15.9399 6.00501 15.176L6.00001 15V11H18ZM15 6C15.7652 5.99996 16.5015 6.29233 17.0583 6.81728C17.615 7.34224 17.9501 8.06011 17.995 8.824L18 9V9.5H6.00001V9C5.99997 8.23479 6.29233 7.49849 6.81729 6.94174C7.34225 6.38499 8.06012 6.04989 8.82401 6.005L9.00001 6H15ZM8.24701 2C8.43703 2.00006 8.61995 2.07224 8.7588 2.20197C8.89765 2.3317 8.98208 2.5093 8.99504 2.69888C9.00799 2.88846 8.94849 3.07589 8.82858 3.2233C8.70866 3.37071 8.53726 3.4671 8.34901 3.493L8.24701 3.5H4.74701C4.43755 3.49986 4.13904 3.61451 3.90924 3.82177C3.67945 4.02903 3.5347 4.31417 3.50301 4.622L3.49701 4.75V8.252C3.49695 8.44202 3.42476 8.62494 3.29504 8.76379C3.16531 8.90264 2.98771 8.98707 2.79813 9.00003C2.60855 9.01298 2.42112 8.95349 2.27371 8.83357C2.1263 8.71365 2.02991 8.54225 2.00401 8.354L1.99701 8.252V4.75C1.99697 4.04971 2.2641 3.37579 2.7439 2.8657C3.2237 2.35561 3.88003 2.04778 4.57901 2.005L4.74701 2H8.24701ZM19.247 2L19.414 2.005C20.0829 2.0458 20.7139 2.32947 21.1885 2.80271C21.663 3.27595 21.9484 3.90618 21.991 4.575L21.997 4.75V8.252L21.99 8.354C21.9653 8.53351 21.8765 8.69801 21.7399 8.81709C21.6033 8.93617 21.4282 9.00177 21.247 9.00177C21.0658 9.00177 20.8907 8.93617 20.7541 8.81709C20.6176 8.69801 20.5287 8.53351 20.504 8.354L20.497 8.252V4.75L20.49 4.622C20.4607 4.33617 20.3339 4.06915 20.1308 3.86589C19.9277 3.66263 19.6608 3.53554 19.375 3.506L19.247 3.5H15.747L15.645 3.493C15.4655 3.4683 15.301 3.37945 15.1819 3.24286C15.0628 3.10628 14.9972 2.9312 14.9972 2.75C14.9972 2.5688 15.0628 2.39372 15.1819 2.25714C15.301 2.12055 15.4655 2.0317 15.645 2.007L15.747 2H19.247Z" fill="#131313"/>
</svg>
