<svg width="13" height="24" viewBox="0 0 13 24" fill="none" xmlns="http://www.w3.org/2000/svg">
<g clip-path="url(#clip0_136_997)">
<path d="M12.3642 7.13698L6.18268 3.56852L0.00289917 7.13698V3.56852L6.18355 0L12.3651 3.56852V7.13698H12.3642Z" fill="#A435F0"/>
<path d="M0.00289917 10.1336H3.24058V18C3.24058 20.0323 4.75828 21.023 6.18355 21.023C7.62114 21.023 9.12739 20.006 9.12739 17.9727V10.1336H12.3651V18.1874C12.3651 20.0596 11.7765 21.5042 10.5993 22.4949C9.42123 23.4847 7.95018 23.9668 6.15627 23.9668C4.36409 23.9668 2.89217 23.4856 1.7423 22.495C0.591503 21.5051 0.00289917 20.1141 0.00289917 18.2674V10.1336Z" fill="#131313"/>
</g>
<defs>
<clipPath id="clip0_136_997">
<rect width="12.368" height="24" fill="white"/>
</clipPath>
</defs>
</svg>
